<?xml version="1.0" encoding="utf-8" standalone="no"?>
<!DOCTYPE svg PUBLIC "-//W3C//DTD SVG 1.1//EN"
  "http://www.w3.org/Graphics/SVG/1.1/DTD/svg11.dtd">
<svg xmlns:xlink="http://www.w3.org/1999/xlink" width="856.541562pt" height="352.236562pt" viewBox="0 0 856.541562 352.236562" xmlns="http://www.w3.org/2000/svg" version="1.1">
 <metadata>
  <rdf:RDF xmlns:dc="http://purl.org/dc/elements/1.1/" xmlns:cc="http://creativecommons.org/ns#" xmlns:rdf="http://www.w3.org/1999/02/22-rdf-syntax-ns#">
   <cc:Work>
    <dc:type rdf:resource="http://purl.org/dc/dcmitype/StillImage"/>
    <dc:date>2026-07-17T10:12:43.893417</dc:date>
    <dc:format>image/svg+xml</dc:format>
    <dc:creator>
     <cc:Agent>
      <dc:title>Matplotlib v3.11.0, https://matplotlib.org/</dc:title>
     </cc:Agent>
    </dc:creator>
   </cc:Work>
  </rdf:RDF>
 </metadata>
 <defs>
  <style type="text/css">*{stroke-linejoin: round; stroke-linecap: butt}</style>
 </defs>
 <g id="figure_1">
  <g id="patch_1">
   <path d="M 0 352.236562 
L 856.541562 352.236562 
L 856.541562 0 
L 0 0 
z
" style="fill: #ffffff"/>
  </g>
  <g id="axes_1">
   <g id="patch_2">
    <path d="M 44.103906 328.035781 
L 418.582734 328.035781 
L 418.582734 22.318125 
L 44.103906 22.318125 
z
" style="fill: #ffffff"/>
   </g>
   <g id="patch_3">
    <path d="M 61.125671 328.035781 
L 158.392899 328.035781 
L 158.392899 233.96881 
L 61.125671 233.96881 
z
" clip-path="url(#pfe91598cd1)" style="fill: #ffc0cb; stroke: #ffffff; stroke-linejoin: miter"/>
   </g>
   <g id="patch_4">
    <path d="M 182.709706 328.035781 
L 279.976934 328.035781 
L 279.976934 193.654394 
L 182.709706 193.654394 
z
" clip-path="url(#pfe91598cd1)" style="fill: #ffc0cb; stroke: #ffffff; stroke-linejoin: miter"/>
   </g>
   <g id="patch_5">
    <path d="M 304.293741 328.035781 
L 401.560969 328.035781 
L 401.560969 36.876109 
L 304.293741 36.876109 
z
" clip-path="url(#pfe91598cd1)" style="fill: #ffc0cb; stroke: #ffffff; stroke-linejoin: miter"/>
   </g>
   <g id="matplotlib.axis_1">
    <g id="xtick_1">
     <g id="line2d_1">
      <defs>
       <path id="m51b13d01e1" d="M 0 0 
L 0 3.5 
" style="stroke: #000000; stroke-width: 0.8"/>
      </defs>
      <g>
       <use xlink:href="#m51b13d01e1" x="109.759285" y="328.035781" style="stroke: #000000; stroke-width: 0.8"/>
      </g>
     </g>
     <g id="text_1">
      <!-- Full model -->
      <g transform="translate(84.051473 342.634219) scale(0.1 -0.1)">
       <defs>
        <path id="DejaVuSans-29" d="M 628 4666 
L 3309 4666 
L 3309 4134 
L 1259 4134 
L 1259 2759 
L 3109 2759 
L 3109 2228 
L 1259 2228 
L 1259 0 
L 628 0 
L 628 4666 
z
" transform="scale(0.015625)"/>
        <path id="DejaVuSans-58" d="M 544 1381 
L 544 3500 
L 1119 3500 
L 1119 1403 
Q 1119 906 1312 657 
Q 1506 409 1894 409 
Q 2359 409 2629 706 
Q 2900 1003 2900 1516 
L 2900 3500 
L 3475 3500 
L 3475 0 
L 2900 0 
L 2900 538 
Q 2691 219 2414 64 
Q 2138 -91 1772 -91 
Q 1169 -91 856 284 
Q 544 659 544 1381 
z
M 1991 3584 
L 1991 3584 
z
" transform="scale(0.015625)"/>
        <path id="DejaVuSans-4f" d="M 603 4863 
L 1178 4863 
L 1178 0 
L 603 0 
L 603 4863 
z
" transform="scale(0.015625)"/>
        <path id="DejaVuSans-3" transform="scale(0.015625)"/>
        <path id="DejaVuSans-50" d="M 3328 2828 
Q 3544 3216 3844 3400 
Q 4144 3584 4550 3584 
Q 5097 3584 5394 3201 
Q 5691 2819 5691 2113 
L 5691 0 
L 5113 0 
L 5113 2094 
Q 5113 2597 4934 2840 
Q 4756 3084 4391 3084 
Q 3944 3084 3684 2787 
Q 3425 2491 3425 1978 
L 3425 0 
L 2847 0 
L 2847 2094 
Q 2847 2600 2669 2842 
Q 2491 3084 2119 3084 
Q 1678 3084 1418 2786 
Q 1159 2488 1159 1978 
L 1159 0 
L 581 0 
L 581 3500 
L 1159 3500 
L 1159 2956 
Q 1356 3278 1631 3431 
Q 1906 3584 2284 3584 
Q 2666 3584 2933 3390 
Q 3200 3197 3328 2828 
z
" transform="scale(0.015625)"/>
        <path id="DejaVuSans-52" d="M 1959 3097 
Q 1497 3097 1228 2736 
Q 959 2375 959 1747 
Q 959 1119 1226 758 
Q 1494 397 1959 397 
Q 2419 397 2687 759 
Q 2956 1122 2956 1747 
Q 2956 2369 2687 2733 
Q 2419 3097 1959 3097 
z
M 1959 3584 
Q 2709 3584 3137 3096 
Q 3566 2609 3566 1747 
Q 3566 888 3137 398 
Q 2709 -91 1959 -91 
Q 1206 -91 779 398 
Q 353 888 353 1747 
Q 353 2609 779 3096 
Q 1206 3584 1959 3584 
z
" transform="scale(0.015625)"/>
        <path id="DejaVuSans-47" d="M 2906 2969 
L 2906 4863 
L 3481 4863 
L 3481 0 
L 2906 0 
L 2906 525 
Q 2725 213 2448 61 
Q 2172 -91 1784 -91 
Q 1150 -91 751 415 
Q 353 922 353 1747 
Q 353 2572 751 3078 
Q 1150 3584 1784 3584 
Q 2172 3584 2448 3432 
Q 2725 3281 2906 2969 
z
M 947 1747 
Q 947 1113 1208 752 
Q 1469 391 1925 391 
Q 2381 391 2643 752 
Q 2906 1113 2906 1747 
Q 2906 2381 2643 2742 
Q 2381 3103 1925 3103 
Q 1469 3103 1208 2742 
Q 947 2381 947 1747 
z
" transform="scale(0.015625)"/>
        <path id="DejaVuSans-48" d="M 3597 1894 
L 3597 1613 
L 953 1613 
Q 991 1019 1311 708 
Q 1631 397 2203 397 
Q 2534 397 2845 478 
Q 3156 559 3463 722 
L 3463 178 
Q 3153 47 2828 -22 
Q 2503 -91 2169 -91 
Q 1331 -91 842 396 
Q 353 884 353 1716 
Q 353 2575 817 3079 
Q 1281 3584 2069 3584 
Q 2775 3584 3186 3129 
Q 3597 2675 3597 1894 
z
M 3022 2063 
Q 3016 2534 2758 2815 
Q 2500 3097 2075 3097 
Q 1594 3097 1305 2825 
Q 1016 2553 972 2059 
L 3022 2063 
z
" transform="scale(0.015625)"/>
       </defs>
       <use xlink:href="#DejaVuSans-29"/>
       <use xlink:href="#DejaVuSans-58" transform="translate(52.046875 0)"/>
       <use xlink:href="#DejaVuSans-4f" transform="translate(115.421875 0)"/>
       <use xlink:href="#DejaVuSans-4f" transform="translate(143.203125 0)"/>
       <use xlink:href="#DejaVuSans-3" transform="translate(170.984375 0)"/>
       <use xlink:href="#DejaVuSans-50" transform="translate(202.765625 0)"/>
       <use xlink:href="#DejaVuSans-52" transform="translate(300.171875 0)"/>
       <use xlink:href="#DejaVuSans-47" transform="translate(361.359375 0)"/>
       <use xlink:href="#DejaVuSans-48" transform="translate(424.84375 0)"/>
       <use xlink:href="#DejaVuSans-4f" transform="translate(486.375 0)"/>
      </g>
     </g>
    </g>
    <g id="xtick_2">
     <g id="line2d_2">
      <g>
       <use xlink:href="#m51b13d01e1" x="231.34332" y="328.035781" style="stroke: #000000; stroke-width: 0.8"/>
      </g>
     </g>
     <g id="text_2">
      <!-- Mean pooling -->
      <g transform="translate(197.716758 342.634219) scale(0.1 -0.1)">
       <defs>
        <path id="DejaVuSans-30" d="M 628 4666 
L 1569 4666 
L 2759 1491 
L 3956 4666 
L 4897 4666 
L 4897 0 
L 4281 0 
L 4281 4097 
L 3078 897 
L 2444 897 
L 1241 4097 
L 1241 0 
L 628 0 
L 628 4666 
z
" transform="scale(0.015625)"/>
        <path id="DejaVuSans-44" d="M 2194 1759 
Q 1497 1759 1228 1600 
Q 959 1441 959 1056 
Q 959 750 1161 570 
Q 1363 391 1709 391 
Q 2188 391 2477 730 
Q 2766 1069 2766 1631 
L 2766 1759 
L 2194 1759 
z
M 3341 1997 
L 3341 0 
L 2766 0 
L 2766 531 
Q 2569 213 2275 61 
Q 1981 -91 1556 -91 
Q 1019 -91 701 211 
Q 384 513 384 1019 
Q 384 1609 779 1909 
Q 1175 2209 1959 2209 
L 2766 2209 
L 2766 2266 
Q 2766 2663 2505 2880 
Q 2244 3097 1772 3097 
Q 1472 3097 1187 3025 
Q 903 2953 641 2809 
L 641 3341 
Q 956 3463 1253 3523 
Q 1550 3584 1831 3584 
Q 2591 3584 2966 3190 
Q 3341 2797 3341 1997 
z
" transform="scale(0.015625)"/>
        <path id="DejaVuSans-51" d="M 3513 2113 
L 3513 0 
L 2938 0 
L 2938 2094 
Q 2938 2591 2744 2837 
Q 2550 3084 2163 3084 
Q 1697 3084 1428 2787 
Q 1159 2491 1159 1978 
L 1159 0 
L 581 0 
L 581 3500 
L 1159 3500 
L 1159 2956 
Q 1366 3272 1645 3428 
Q 1925 3584 2291 3584 
Q 2894 3584 3203 3211 
Q 3513 2838 3513 2113 
z
" transform="scale(0.015625)"/>
        <path id="DejaVuSans-53" d="M 1159 525 
L 1159 -1331 
L 581 -1331 
L 581 3500 
L 1159 3500 
L 1159 2969 
Q 1341 3281 1617 3432 
Q 1894 3584 2278 3584 
Q 2916 3584 3314 3078 
Q 3713 2572 3713 1747 
Q 3713 922 3314 415 
Q 2916 -91 2278 -91 
Q 1894 -91 1617 61 
Q 1341 213 1159 525 
z
M 3116 1747 
Q 3116 2381 2855 2742 
Q 2594 3103 2138 3103 
Q 1681 3103 1420 2742 
Q 1159 2381 1159 1747 
Q 1159 1113 1420 752 
Q 1681 391 2138 391 
Q 2594 391 2855 752 
Q 3116 1113 3116 1747 
z
" transform="scale(0.015625)"/>
        <path id="DejaVuSans-4c" d="M 603 3500 
L 1178 3500 
L 1178 0 
L 603 0 
L 603 3500 
z
M 603 4863 
L 1178 4863 
L 1178 4134 
L 603 4134 
L 603 4863 
z
" transform="scale(0.015625)"/>
        <path id="DejaVuSans-4a" d="M 2906 1791 
Q 2906 2416 2648 2759 
Q 2391 3103 1925 3103 
Q 1463 3103 1205 2759 
Q 947 2416 947 1791 
Q 947 1169 1205 825 
Q 1463 481 1925 481 
Q 2391 481 2648 825 
Q 2906 1169 2906 1791 
z
M 3481 434 
Q 3481 -459 3084 -895 
Q 2688 -1331 1869 -1331 
Q 1566 -1331 1297 -1286 
Q 1028 -1241 775 -1147 
L 775 -588 
Q 1028 -725 1275 -790 
Q 1522 -856 1778 -856 
Q 2344 -856 2625 -561 
Q 2906 -266 2906 331 
L 2906 616 
Q 2728 306 2450 153 
Q 2172 0 1784 0 
Q 1141 0 747 490 
Q 353 981 353 1791 
Q 353 2603 747 3093 
Q 1141 3584 1784 3584 
Q 2172 3584 2450 3431 
Q 2728 3278 2906 2969 
L 2906 3500 
L 3481 3500 
L 3481 434 
z
" transform="scale(0.015625)"/>
       </defs>
       <use xlink:href="#DejaVuSans-30"/>
       <use xlink:href="#DejaVuSans-48" transform="translate(86.28125 0)"/>
       <use xlink:href="#DejaVuSans-44" transform="translate(147.8125 0)"/>
       <use xlink:href="#DejaVuSans-51" transform="translate(209.09375 0)"/>
       <use xlink:href="#DejaVuSans-3" transform="translate(272.46875 0)"/>
       <use xlink:href="#DejaVuSans-53" transform="translate(304.25 0)"/>
       <use xlink:href="#DejaVuSans-52" transform="translate(367.734375 0)"/>
       <use xlink:href="#DejaVuSans-52" transform="translate(428.921875 0)"/>
       <use xlink:href="#DejaVuSans-4f" transform="translate(490.109375 0)"/>
       <use xlink:href="#DejaVuSans-4c" transform="translate(517.890625 0)"/>
       <use xlink:href="#DejaVuSans-51" transform="translate(545.671875 0)"/>
       <use xlink:href="#DejaVuSans-4a" transform="translate(609.046875 0)"/>
      </g>
     </g>
    </g>
    <g id="xtick_3">
     <g id="line2d_3">
      <g>
       <use xlink:href="#m51b13d01e1" x="352.927355" y="328.035781" style="stroke: #000000; stroke-width: 0.8"/>
      </g>
     </g>
     <g id="text_3">
      <!-- Untrained encoder -->
      <g transform="translate(306.26173 342.634219) scale(0.1 -0.1)">
       <defs>
        <path id="DejaVuSans-38" d="M 556 4666 
L 1191 4666 
L 1191 1831 
Q 1191 1081 1462 751 
Q 1734 422 2344 422 
Q 2950 422 3222 751 
Q 3494 1081 3494 1831 
L 3494 4666 
L 4128 4666 
L 4128 1753 
Q 4128 841 3676 375 
Q 3225 -91 2344 -91 
Q 1459 -91 1007 375 
Q 556 841 556 1753 
L 556 4666 
z
" transform="scale(0.015625)"/>
        <path id="DejaVuSans-57" d="M 1172 4494 
L 1172 3500 
L 2356 3500 
L 2356 3053 
L 1172 3053 
L 1172 1153 
Q 1172 725 1289 603 
Q 1406 481 1766 481 
L 2356 481 
L 2356 0 
L 1766 0 
Q 1100 0 847 248 
Q 594 497 594 1153 
L 594 3053 
L 172 3053 
L 172 3500 
L 594 3500 
L 594 4494 
L 1172 4494 
z
" transform="scale(0.015625)"/>
        <path id="DejaVuSans-55" d="M 2631 2963 
Q 2534 3019 2420 3045 
Q 2306 3072 2169 3072 
Q 1681 3072 1420 2755 
Q 1159 2438 1159 1844 
L 1159 0 
L 581 0 
L 581 3500 
L 1159 3500 
L 1159 2956 
Q 1341 3275 1631 3429 
Q 1922 3584 2338 3584 
Q 2397 3584 2469 3576 
Q 2541 3569 2628 3553 
L 2631 2963 
z
" transform="scale(0.015625)"/>
        <path id="DejaVuSans-46" d="M 3122 3366 
L 3122 2828 
Q 2878 2963 2633 3030 
Q 2388 3097 2138 3097 
Q 1578 3097 1268 2742 
Q 959 2388 959 1747 
Q 959 1106 1268 751 
Q 1578 397 2138 397 
Q 2388 397 2633 464 
Q 2878 531 3122 666 
L 3122 134 
Q 2881 22 2623 -34 
Q 2366 -91 2075 -91 
Q 1284 -91 818 406 
Q 353 903 353 1747 
Q 353 2603 823 3093 
Q 1294 3584 2113 3584 
Q 2378 3584 2631 3529 
Q 2884 3475 3122 3366 
z
" transform="scale(0.015625)"/>
       </defs>
       <use xlink:href="#DejaVuSans-38"/>
       <use xlink:href="#DejaVuSans-51" transform="translate(73.1875 0)"/>
       <use xlink:href="#DejaVuSans-57" transform="translate(136.5625 0)"/>
       <use xlink:href="#DejaVuSans-55" transform="translate(175.765625 0)"/>
       <use xlink:href="#DejaVuSans-44" transform="translate(216.875 0)"/>
       <use xlink:href="#DejaVuSans-4c" transform="translate(278.15625 0)"/>
       <use xlink:href="#DejaVuSans-51" transform="translate(305.9375 0)"/>
       <use xlink:href="#DejaVuSans-48" transform="translate(369.3125 0)"/>
       <use xlink:href="#DejaVuSans-47" transform="translate(430.84375 0)"/>
       <use xlink:href="#DejaVuSans-3" transform="translate(494.328125 0)"/>
       <use xlink:href="#DejaVuSans-48" transform="translate(526.109375 0)"/>
       <use xlink:href="#DejaVuSans-51" transform="translate(587.640625 0)"/>
       <use xlink:href="#DejaVuSans-46" transform="translate(651.015625 0)"/>
       <use xlink:href="#DejaVuSans-52" transform="translate(706 0)"/>
       <use xlink:href="#DejaVuSans-47" transform="translate(767.1875 0)"/>
       <use xlink:href="#DejaVuSans-48" transform="translate(830.671875 0)"/>
       <use xlink:href="#DejaVuSans-55" transform="translate(892.203125 0)"/>
      </g>
     </g>
    </g>
   </g>
   <g id="matplotlib.axis_2">
    <g id="ytick_1">
     <g id="line2d_4">
      <defs>
       <path id="m02488b9622" d="M 0 0 
L -3.5 0 
" style="stroke: #000000; stroke-width: 0.8"/>
      </defs>
      <g>
       <use xlink:href="#m02488b9622" x="44.103906" y="328.035781" style="stroke: #000000; stroke-width: 0.8"/>
      </g>
     </g>
     <g id="text_4">
      <!-- 0.0 -->
      <g transform="translate(21.200781 331.834609) scale(0.1 -0.1)">
       <defs>
        <path id="DejaVuSans-13" d="M 2034 4250 
Q 1547 4250 1301 3770 
Q 1056 3291 1056 2328 
Q 1056 1369 1301 889 
Q 1547 409 2034 409 
Q 2525 409 2770 889 
Q 3016 1369 3016 2328 
Q 3016 3291 2770 3770 
Q 2525 4250 2034 4250 
z
M 2034 4750 
Q 2819 4750 3233 4129 
Q 3647 3509 3647 2328 
Q 3647 1150 3233 529 
Q 2819 -91 2034 -91 
Q 1250 -91 836 529 
Q 422 1150 422 2328 
Q 422 3509 836 4129 
Q 1250 4750 2034 4750 
z
" transform="scale(0.015625)"/>
        <path id="DejaVuSans-11" d="M 684 794 
L 1344 794 
L 1344 0 
L 684 0 
L 684 794 
z
" transform="scale(0.015625)"/>
       </defs>
       <use xlink:href="#DejaVuSans-13"/>
       <use xlink:href="#DejaVuSans-11" transform="translate(63.625 0)"/>
       <use xlink:href="#DejaVuSans-13" transform="translate(95.40625 0)"/>
      </g>
     </g>
    </g>
    <g id="ytick_2">
     <g id="line2d_5">
      <g>
       <use xlink:href="#m02488b9622" x="44.103906" y="272.043537" style="stroke: #000000; stroke-width: 0.8"/>
      </g>
     </g>
     <g id="text_5">
      <!-- 0.1 -->
      <g transform="translate(21.200781 275.842365) scale(0.1 -0.1)">
       <defs>
        <path id="DejaVuSans-14" d="M 794 531 
L 1825 531 
L 1825 4091 
L 703 3866 
L 703 4441 
L 1819 4666 
L 2450 4666 
L 2450 531 
L 3481 531 
L 3481 0 
L 794 0 
L 794 531 
z
" transform="scale(0.015625)"/>
       </defs>
       <use xlink:href="#DejaVuSans-13"/>
       <use xlink:href="#DejaVuSans-11" transform="translate(63.625 0)"/>
       <use xlink:href="#DejaVuSans-14" transform="translate(95.40625 0)"/>
      </g>
     </g>
    </g>
    <g id="ytick_3">
     <g id="line2d_6">
      <g>
       <use xlink:href="#m02488b9622" x="44.103906" y="216.051292" style="stroke: #000000; stroke-width: 0.8"/>
      </g>
     </g>
     <g id="text_6">
      <!-- 0.2 -->
      <g transform="translate(21.200781 219.85012) scale(0.1 -0.1)">
       <defs>
        <path id="DejaVuSans-15" d="M 1228 531 
L 3431 531 
L 3431 0 
L 469 0 
L 469 531 
Q 828 903 1448 1529 
Q 2069 2156 2228 2338 
Q 2531 2678 2651 2914 
Q 2772 3150 2772 3378 
Q 2772 3750 2511 3984 
Q 2250 4219 1831 4219 
Q 1534 4219 1204 4116 
Q 875 4013 500 3803 
L 500 4441 
Q 881 4594 1212 4672 
Q 1544 4750 1819 4750 
Q 2544 4750 2975 4387 
Q 3406 4025 3406 3419 
Q 3406 3131 3298 2873 
Q 3191 2616 2906 2266 
Q 2828 2175 2409 1742 
Q 1991 1309 1228 531 
z
" transform="scale(0.015625)"/>
       </defs>
       <use xlink:href="#DejaVuSans-13"/>
       <use xlink:href="#DejaVuSans-11" transform="translate(63.625 0)"/>
       <use xlink:href="#DejaVuSans-15" transform="translate(95.40625 0)"/>
      </g>
     </g>
    </g>
    <g id="ytick_4">
     <g id="line2d_7">
      <g>
       <use xlink:href="#m02488b9622" x="44.103906" y="160.059047" style="stroke: #000000; stroke-width: 0.8"/>
      </g>
     </g>
     <g id="text_7">
      <!-- 0.3 -->
      <g transform="translate(21.200781 163.857875) scale(0.1 -0.1)">
       <defs>
        <path id="DejaVuSans-16" d="M 2597 2516 
Q 3050 2419 3304 2112 
Q 3559 1806 3559 1356 
Q 3559 666 3084 287 
Q 2609 -91 1734 -91 
Q 1441 -91 1130 -33 
Q 819 25 488 141 
L 488 750 
Q 750 597 1062 519 
Q 1375 441 1716 441 
Q 2309 441 2620 675 
Q 2931 909 2931 1356 
Q 2931 1769 2642 2001 
Q 2353 2234 1838 2234 
L 1294 2234 
L 1294 2753 
L 1863 2753 
Q 2328 2753 2575 2939 
Q 2822 3125 2822 3475 
Q 2822 3834 2567 4026 
Q 2313 4219 1838 4219 
Q 1578 4219 1281 4162 
Q 984 4106 628 3988 
L 628 4550 
Q 988 4650 1302 4700 
Q 1616 4750 1894 4750 
Q 2613 4750 3031 4423 
Q 3450 4097 3450 3541 
Q 3450 3153 3228 2886 
Q 3006 2619 2597 2516 
z
" transform="scale(0.015625)"/>
       </defs>
       <use xlink:href="#DejaVuSans-13"/>
       <use xlink:href="#DejaVuSans-11" transform="translate(63.625 0)"/>
       <use xlink:href="#DejaVuSans-16" transform="translate(95.40625 0)"/>
      </g>
     </g>
    </g>
    <g id="ytick_5">
     <g id="line2d_8">
      <g>
       <use xlink:href="#m02488b9622" x="44.103906" y="104.066802" style="stroke: #000000; stroke-width: 0.8"/>
      </g>
     </g>
     <g id="text_8">
      <!-- 0.4 -->
      <g transform="translate(21.200781 107.86563) scale(0.1 -0.1)">
       <defs>
        <path id="DejaVuSans-17" d="M 2419 4116 
L 825 1625 
L 2419 1625 
L 2419 4116 
z
M 2253 4666 
L 3047 4666 
L 3047 1625 
L 3713 1625 
L 3713 1100 
L 3047 1100 
L 3047 0 
L 2419 0 
L 2419 1100 
L 313 1100 
L 313 1709 
L 2253 4666 
z
" transform="scale(0.015625)"/>
       </defs>
       <use xlink:href="#DejaVuSans-13"/>
       <use xlink:href="#DejaVuSans-11" transform="translate(63.625 0)"/>
       <use xlink:href="#DejaVuSans-17" transform="translate(95.40625 0)"/>
      </g>
     </g>
    </g>
    <g id="ytick_6">
     <g id="line2d_9">
      <g>
       <use xlink:href="#m02488b9622" x="44.103906" y="48.074558" style="stroke: #000000; stroke-width: 0.8"/>
      </g>
     </g>
     <g id="text_9">
      <!-- 0.5 -->
      <g transform="translate(21.200781 51.873386) scale(0.1 -0.1)">
       <defs>
        <path id="DejaVuSans-18" d="M 691 4666 
L 3169 4666 
L 3169 4134 
L 1269 4134 
L 1269 2991 
Q 1406 3038 1543 3061 
Q 1681 3084 1819 3084 
Q 2600 3084 3056 2656 
Q 3513 2228 3513 1497 
Q 3513 744 3044 326 
Q 2575 -91 1722 -91 
Q 1428 -91 1123 -41 
Q 819 9 494 109 
L 494 744 
Q 775 591 1075 516 
Q 1375 441 1709 441 
Q 2250 441 2565 725 
Q 2881 1009 2881 1497 
Q 2881 1984 2565 2268 
Q 2250 2553 1709 2553 
Q 1456 2553 1204 2497 
Q 953 2441 691 2322 
L 691 4666 
z
" transform="scale(0.015625)"/>
       </defs>
       <use xlink:href="#DejaVuSans-13"/>
       <use xlink:href="#DejaVuSans-11" transform="translate(63.625 0)"/>
       <use xlink:href="#DejaVuSans-18" transform="translate(95.40625 0)"/>
      </g>
     </g>
    </g>
    <g id="text_10">
     <!-- silhouette score -->
     <g transform="translate(14.798438 215.054297) rotate(-90) scale(0.1 -0.1)">
      <defs>
       <path id="DejaVuSans-56" d="M 2834 3397 
L 2834 2853 
Q 2591 2978 2328 3040 
Q 2066 3103 1784 3103 
Q 1356 3103 1142 2972 
Q 928 2841 928 2578 
Q 928 2378 1081 2264 
Q 1234 2150 1697 2047 
L 1894 2003 
Q 2506 1872 2764 1633 
Q 3022 1394 3022 966 
Q 3022 478 2636 193 
Q 2250 -91 1575 -91 
Q 1294 -91 989 -36 
Q 684 19 347 128 
L 347 722 
Q 666 556 975 473 
Q 1284 391 1588 391 
Q 1994 391 2212 530 
Q 2431 669 2431 922 
Q 2431 1156 2273 1281 
Q 2116 1406 1581 1522 
L 1381 1569 
Q 847 1681 609 1914 
Q 372 2147 372 2553 
Q 372 3047 722 3315 
Q 1072 3584 1716 3584 
Q 2034 3584 2315 3537 
Q 2597 3491 2834 3397 
z
" transform="scale(0.015625)"/>
       <path id="DejaVuSans-4b" d="M 3513 2113 
L 3513 0 
L 2938 0 
L 2938 2094 
Q 2938 2591 2744 2837 
Q 2550 3084 2163 3084 
Q 1697 3084 1428 2787 
Q 1159 2491 1159 1978 
L 1159 0 
L 581 0 
L 581 4863 
L 1159 4863 
L 1159 2956 
Q 1366 3272 1645 3428 
Q 1925 3584 2291 3584 
Q 2894 3584 3203 3211 
Q 3513 2838 3513 2113 
z
" transform="scale(0.015625)"/>
      </defs>
      <use xlink:href="#DejaVuSans-56"/>
      <use xlink:href="#DejaVuSans-4c" transform="translate(52.09375 0)"/>
      <use xlink:href="#DejaVuSans-4f" transform="translate(79.875 0)"/>
      <use xlink:href="#DejaVuSans-4b" transform="translate(107.65625 0)"/>
      <use xlink:href="#DejaVuSans-52" transform="translate(171.03125 0)"/>
      <use xlink:href="#DejaVuSans-58" transform="translate(232.21875 0)"/>
      <use xlink:href="#DejaVuSans-48" transform="translate(295.59375 0)"/>
      <use xlink:href="#DejaVuSans-57" transform="translate(357.125 0)"/>
      <use xlink:href="#DejaVuSans-57" transform="translate(396.328125 0)"/>
      <use xlink:href="#DejaVuSans-48" transform="translate(435.53125 0)"/>
      <use xlink:href="#DejaVuSans-3" transform="translate(497.0625 0)"/>
      <use xlink:href="#DejaVuSans-56" transform="translate(528.84375 0)"/>
      <use xlink:href="#DejaVuSans-46" transform="translate(580.9375 0)"/>
      <use xlink:href="#DejaVuSans-52" transform="translate(635.921875 0)"/>
      <use xlink:href="#DejaVuSans-55" transform="translate(697.109375 0)"/>
      <use xlink:href="#DejaVuSans-48" transform="translate(736.015625 0)"/>
     </g>
    </g>
   </g>
   <g id="LineCollection_1">
    <path d="M 109.759285 233.96881 
L 109.759285 233.96881 
" clip-path="url(#pfe91598cd1)" style="fill: none; stroke: #000000; stroke-width: 1.5"/>
    <path d="M 231.34332 193.654394 
L 231.34332 193.654394 
" clip-path="url(#pfe91598cd1)" style="fill: none; stroke: #000000; stroke-width: 1.5"/>
    <path d="M 352.927355 87.269129 
L 352.927355 36.876109 
" clip-path="url(#pfe91598cd1)" style="fill: none; stroke: #000000; stroke-width: 1.5"/>
   </g>
   <g id="line2d_10">
    <defs>
     <path id="m3005073385" d="M 6 0 
L -6 -0 
" style="stroke: #000000"/>
    </defs>
    <g clip-path="url(#pfe91598cd1)">
     <use xlink:href="#m3005073385" x="109.759285" y="233.96881" style="fill: #1f77b4; stroke: #000000"/>
     <use xlink:href="#m3005073385" x="231.34332" y="193.654394" style="fill: #1f77b4; stroke: #000000"/>
     <use xlink:href="#m3005073385" x="352.927355" y="87.269129" style="fill: #1f77b4; stroke: #000000"/>
    </g>
   </g>
   <g id="line2d_11">
    <g clip-path="url(#pfe91598cd1)">
     <use xlink:href="#m3005073385" x="109.759285" y="233.96881" style="fill: #1f77b4; stroke: #000000"/>
     <use xlink:href="#m3005073385" x="231.34332" y="193.654394" style="fill: #1f77b4; stroke: #000000"/>
     <use xlink:href="#m3005073385" x="352.927355" y="36.876109" style="fill: #1f77b4; stroke: #000000"/>
    </g>
   </g>
   <g id="patch_6">
    <path d="M 44.103906 328.035781 
L 44.103906 22.318125 
" style="fill: none; stroke: #000000; stroke-width: 0.8; stroke-linejoin: miter; stroke-linecap: square"/>
   </g>
   <g id="patch_7">
    <path d="M 418.582734 328.035781 
L 418.582734 22.318125 
" style="fill: none; stroke: #000000; stroke-width: 0.8; stroke-linejoin: miter; stroke-linecap: square"/>
   </g>
   <g id="patch_8">
    <path d="M 44.103906 328.035781 
L 418.582734 328.035781 
" style="fill: none; stroke: #000000; stroke-width: 0.8; stroke-linejoin: miter; stroke-linecap: square"/>
   </g>
   <g id="patch_9">
    <path d="M 44.103906 22.318125 
L 418.582734 22.318125 
" style="fill: none; stroke: #000000; stroke-width: 0.8; stroke-linejoin: miter; stroke-linecap: square"/>
   </g>
   <g id="text_11">
    <!-- A. Ablation -->
    <g transform="translate(198.780195 16.318125) scale(0.12 -0.12)">
     <defs>
      <path id="DejaVuSans-24" d="M 2188 4044 
L 1331 1722 
L 3047 1722 
L 2188 4044 
z
M 1831 4666 
L 2547 4666 
L 4325 0 
L 3669 0 
L 3244 1197 
L 1141 1197 
L 716 0 
L 50 0 
L 1831 4666 
z
" transform="scale(0.015625)"/>
      <path id="DejaVuSans-45" d="M 3116 1747 
Q 3116 2381 2855 2742 
Q 2594 3103 2138 3103 
Q 1681 3103 1420 2742 
Q 1159 2381 1159 1747 
Q 1159 1113 1420 752 
Q 1681 391 2138 391 
Q 2594 391 2855 752 
Q 3116 1113 3116 1747 
z
M 1159 2969 
Q 1341 3281 1617 3432 
Q 1894 3584 2278 3584 
Q 2916 3584 3314 3078 
Q 3713 2572 3713 1747 
Q 3713 922 3314 415 
Q 2916 -91 2278 -91 
Q 1894 -91 1617 61 
Q 1341 213 1159 525 
L 1159 0 
L 581 0 
L 581 4863 
L 1159 4863 
L 1159 2969 
z
" transform="scale(0.015625)"/>
     </defs>
     <use xlink:href="#DejaVuSans-24"/>
     <use xlink:href="#DejaVuSans-11" transform="translate(66.65625 0)"/>
     <use xlink:href="#DejaVuSans-3" transform="translate(98.4375 0)"/>
     <use xlink:href="#DejaVuSans-24" transform="translate(130.21875 0)"/>
     <use xlink:href="#DejaVuSans-45" transform="translate(198.625 0)"/>
     <use xlink:href="#DejaVuSans-4f" transform="translate(262.109375 0)"/>
     <use xlink:href="#DejaVuSans-44" transform="translate(289.890625 0)"/>
     <use xlink:href="#DejaVuSans-57" transform="translate(351.171875 0)"/>
     <use xlink:href="#DejaVuSans-4c" transform="translate(390.375 0)"/>
     <use xlink:href="#DejaVuSans-52" transform="translate(418.15625 0)"/>
     <use xlink:href="#DejaVuSans-51" transform="translate(479.34375 0)"/>
    </g>
   </g>
  </g>
  <g id="axes_2">
   <g id="patch_10">
    <path d="M 474.862734 328.035781 
L 849.341563 328.035781 
L 849.341563 22.318125 
L 474.862734 22.318125 
z
" style="fill: #ffffff"/>
   </g>
   <g id="matplotlib.axis_3"/>
   <g id="matplotlib.axis_4">
    <g id="ytick_7">
     <g id="line2d_12">
      <g>
       <use xlink:href="#m02488b9622" x="474.862734" y="304.026371" style="stroke: #000000; stroke-width: 0.8"/>
      </g>
     </g>
     <g id="text_12">
      <!-- −0.2 -->
      <g transform="translate(443.579922 307.825199) scale(0.1 -0.1)">
       <defs>
        <path id="DejaVuSans-c9c" d="M 678 2272 
L 4684 2272 
L 4684 1741 
L 678 1741 
L 678 2272 
z
" transform="scale(0.015625)"/>
       </defs>
       <use xlink:href="#DejaVuSans-c9c"/>
       <use xlink:href="#DejaVuSans-13" transform="translate(83.796875 0)"/>
       <use xlink:href="#DejaVuSans-11" transform="translate(147.421875 0)"/>
       <use xlink:href="#DejaVuSans-15" transform="translate(179.203125 0)"/>
      </g>
     </g>
    </g>
    <g id="ytick_8">
     <g id="line2d_13">
      <g>
       <use xlink:href="#m02488b9622" x="474.862734" y="260.244477" style="stroke: #000000; stroke-width: 0.8"/>
      </g>
     </g>
     <g id="text_13">
      <!-- −0.1 -->
      <g transform="translate(443.579922 264.043305) scale(0.1 -0.1)">
       <use xlink:href="#DejaVuSans-c9c"/>
       <use xlink:href="#DejaVuSans-13" transform="translate(83.796875 0)"/>
       <use xlink:href="#DejaVuSans-11" transform="translate(147.421875 0)"/>
       <use xlink:href="#DejaVuSans-14" transform="translate(179.203125 0)"/>
      </g>
     </g>
    </g>
    <g id="ytick_9">
     <g id="line2d_14">
      <g>
       <use xlink:href="#m02488b9622" x="474.862734" y="216.462582" style="stroke: #000000; stroke-width: 0.8"/>
      </g>
     </g>
     <g id="text_14">
      <!-- 0.0 -->
      <g transform="translate(451.959609 220.261411) scale(0.1 -0.1)">
       <use xlink:href="#DejaVuSans-13"/>
       <use xlink:href="#DejaVuSans-11" transform="translate(63.625 0)"/>
       <use xlink:href="#DejaVuSans-13" transform="translate(95.40625 0)"/>
      </g>
     </g>
    </g>
    <g id="ytick_10">
     <g id="line2d_15">
      <g>
       <use xlink:href="#m02488b9622" x="474.862734" y="172.680688" style="stroke: #000000; stroke-width: 0.8"/>
      </g>
     </g>
     <g id="text_15">
      <!-- 0.1 -->
      <g transform="translate(451.959609 176.479516) scale(0.1 -0.1)">
       <use xlink:href="#DejaVuSans-13"/>
       <use xlink:href="#DejaVuSans-11" transform="translate(63.625 0)"/>
       <use xlink:href="#DejaVuSans-14" transform="translate(95.40625 0)"/>
      </g>
     </g>
    </g>
    <g id="ytick_11">
     <g id="line2d_16">
      <g>
       <use xlink:href="#m02488b9622" x="474.862734" y="128.898794" style="stroke: #000000; stroke-width: 0.8"/>
      </g>
     </g>
     <g id="text_16">
      <!-- 0.2 -->
      <g transform="translate(451.959609 132.697622) scale(0.1 -0.1)">
       <use xlink:href="#DejaVuSans-13"/>
       <use xlink:href="#DejaVuSans-11" transform="translate(63.625 0)"/>
       <use xlink:href="#DejaVuSans-15" transform="translate(95.40625 0)"/>
      </g>
     </g>
    </g>
    <g id="ytick_12">
     <g id="line2d_17">
      <g>
       <use xlink:href="#m02488b9622" x="474.862734" y="85.1169" style="stroke: #000000; stroke-width: 0.8"/>
      </g>
     </g>
     <g id="text_17">
      <!-- 0.3 -->
      <g transform="translate(451.959609 88.915728) scale(0.1 -0.1)">
       <use xlink:href="#DejaVuSans-13"/>
       <use xlink:href="#DejaVuSans-11" transform="translate(63.625 0)"/>
       <use xlink:href="#DejaVuSans-16" transform="translate(95.40625 0)"/>
      </g>
     </g>
    </g>
    <g id="ytick_13">
     <g id="line2d_18">
      <g>
       <use xlink:href="#m02488b9622" x="474.862734" y="41.335006" style="stroke: #000000; stroke-width: 0.8"/>
      </g>
     </g>
     <g id="text_18">
      <!-- 0.4 -->
      <g transform="translate(451.959609 45.133834) scale(0.1 -0.1)">
       <use xlink:href="#DejaVuSans-13"/>
       <use xlink:href="#DejaVuSans-11" transform="translate(63.625 0)"/>
       <use xlink:href="#DejaVuSans-17" transform="translate(95.40625 0)"/>
      </g>
     </g>
    </g>
    <g id="text_19">
     <!-- r -->
     <g transform="translate(437.177578 177.232422) rotate(-90) scale(0.1 -0.1)">
      <use xlink:href="#DejaVuSans-55"/>
     </g>
    </g>
   </g>
   <g id="line2d_19">
    <path d="M 474.862734 235.977276 
L 849.341563 235.977276 
" clip-path="url(#pc13c03c74a)" style="fill: none; stroke-dasharray: 5.55,2.4; stroke-dashoffset: 0; stroke: #dc143c; stroke-width: 1.5"/>
   </g>
   <g id="line2d_20">
    <path d="M 474.862734 314.139524 
L 849.341563 314.139524 
" clip-path="url(#pc13c03c74a)" style="fill: none; stroke-dasharray: 5.55,2.4; stroke-dashoffset: 0; stroke: #000080; stroke-width: 1.5"/>
   </g>
   <g id="patch_11">
    <path d="M 474.862734 328.035781 
L 474.862734 22.318125 
" style="fill: none; stroke: #000000; stroke-width: 0.8; stroke-linejoin: miter; stroke-linecap: square"/>
   </g>
   <g id="patch_12">
    <path d="M 849.341563 328.035781 
L 849.341563 22.318125 
" style="fill: none; stroke: #000000; stroke-width: 0.8; stroke-linejoin: miter; stroke-linecap: square"/>
   </g>
   <g id="patch_13">
    <path d="M 474.862734 328.035781 
L 849.341563 328.035781 
" style="fill: none; stroke: #000000; stroke-width: 0.8; stroke-linejoin: miter; stroke-linecap: square"/>
   </g>
   <g id="patch_14">
    <path d="M 474.862734 22.318125 
L 849.341563 22.318125 
" style="fill: none; stroke: #000000; stroke-width: 0.8; stroke-linejoin: miter; stroke-linecap: square"/>
   </g>
   <g id="PathCollection_1">
    <defs>
     <path id="mab8876e3a0" d="M 0 4 
C 1.060812 4 2.078319 3.578535 2.828427 2.828427 
C 3.578535 2.078319 4 1.060812 4 0 
C 4 -1.060812 3.578535 -2.078319 2.828427 -2.828427 
C 2.078319 -3.578535 1.060812 -4 0 -4 
C -1.060812 -4 -2.078319 -3.578535 -2.828427 -2.828427 
C -3.578535 -2.078319 -4 -1.060812 -4 0 
C -4 1.060812 -3.578535 2.078319 -2.828427 2.828427 
C -2.078319 3.578535 -1.060812 4 0 4 
z
"/>
    </defs>
    <g clip-path="url(#pc13c03c74a)">
     <use xlink:href="#mab8876e3a0" x="621.154331" y="49.586467" style="fill: #ffc0cb"/>
     <use xlink:href="#mab8876e3a0" x="622.588815" y="66.129084" style="fill: #ffc0cb"/>
     <use xlink:href="#mab8876e3a0" x="613.488987" y="70.260161" style="fill: #ffc0cb"/>
     <use xlink:href="#mab8876e3a0" x="659.378639" y="75.409128" style="fill: #ffc0cb"/>
     <use xlink:href="#mab8876e3a0" x="703.56267" y="44.310103" style="fill: #ffc0cb"/>
     <use xlink:href="#mab8876e3a0" x="653.497588" y="178.745201" style="fill: #ffc0cb"/>
     <use xlink:href="#mab8876e3a0" x="643.15596" y="36.214382" style="fill: #ffc0cb"/>
     <use xlink:href="#mab8876e3a0" x="625.694015" y="69.937118" style="fill: #ffc0cb"/>
     <use xlink:href="#mab8876e3a0" x="695.978635" y="75.604172" style="fill: #ffc0cb"/>
     <use xlink:href="#mab8876e3a0" x="671.370027" y="95.658412" style="fill: #ffc0cb"/>
    </g>
   </g>
   <g id="text_20">
    <!-- B. Random-encoder regression seeds (n=10) -->
    <g transform="translate(527.168711 16.318125) scale(0.12 -0.12)">
     <defs>
      <path id="DejaVuSans-25" d="M 1259 2228 
L 1259 519 
L 2272 519 
Q 2781 519 3026 730 
Q 3272 941 3272 1375 
Q 3272 1813 3026 2020 
Q 2781 2228 2272 2228 
L 1259 2228 
z
M 1259 4147 
L 1259 2741 
L 2194 2741 
Q 2656 2741 2882 2914 
Q 3109 3088 3109 3444 
Q 3109 3797 2882 3972 
Q 2656 4147 2194 4147 
L 1259 4147 
z
M 628 4666 
L 2241 4666 
Q 2963 4666 3353 4366 
Q 3744 4066 3744 3513 
Q 3744 3084 3544 2831 
Q 3344 2578 2956 2516 
Q 3422 2416 3680 2098 
Q 3938 1781 3938 1306 
Q 3938 681 3513 340 
Q 3088 0 2303 0 
L 628 0 
L 628 4666 
z
" transform="scale(0.015625)"/>
      <path id="DejaVuSans-35" d="M 2841 2188 
Q 3044 2119 3236 1894 
Q 3428 1669 3622 1275 
L 4263 0 
L 3584 0 
L 2988 1197 
Q 2756 1666 2539 1819 
Q 2322 1972 1947 1972 
L 1259 1972 
L 1259 0 
L 628 0 
L 628 4666 
L 2053 4666 
Q 2853 4666 3247 4331 
Q 3641 3997 3641 3322 
Q 3641 2881 3436 2590 
Q 3231 2300 2841 2188 
z
M 1259 4147 
L 1259 2491 
L 2053 2491 
Q 2509 2491 2742 2702 
Q 2975 2913 2975 3322 
Q 2975 3731 2742 3939 
Q 2509 4147 2053 4147 
L 1259 4147 
z
" transform="scale(0.015625)"/>
      <path id="DejaVuSans-10" d="M 313 2009 
L 1997 2009 
L 1997 1497 
L 313 1497 
L 313 2009 
z
" transform="scale(0.015625)"/>
      <path id="DejaVuSans-b" d="M 1984 4856 
Q 1566 4138 1362 3434 
Q 1159 2731 1159 2009 
Q 1159 1288 1364 580 
Q 1569 -128 1984 -844 
L 1484 -844 
Q 1016 -109 783 600 
Q 550 1309 550 2009 
Q 550 2706 781 3412 
Q 1013 4119 1484 4856 
L 1984 4856 
z
" transform="scale(0.015625)"/>
      <path id="DejaVuSans-20" d="M 678 2906 
L 4684 2906 
L 4684 2381 
L 678 2381 
L 678 2906 
z
M 678 1631 
L 4684 1631 
L 4684 1100 
L 678 1100 
L 678 1631 
z
" transform="scale(0.015625)"/>
      <path id="DejaVuSans-c" d="M 513 4856 
L 1013 4856 
Q 1481 4119 1714 3412 
Q 1947 2706 1947 2009 
Q 1947 1309 1714 600 
Q 1481 -109 1013 -844 
L 513 -844 
Q 928 -128 1133 580 
Q 1338 1288 1338 2009 
Q 1338 2731 1133 3434 
Q 928 4138 513 4856 
z
" transform="scale(0.015625)"/>
     </defs>
     <use xlink:href="#DejaVuSans-25"/>
     <use xlink:href="#DejaVuSans-11" transform="translate(68.609375 0)"/>
     <use xlink:href="#DejaVuSans-3" transform="translate(100.390625 0)"/>
     <use xlink:href="#DejaVuSans-35" transform="translate(132.171875 0)"/>
     <use xlink:href="#DejaVuSans-44" transform="translate(199.453125 0)"/>
     <use xlink:href="#DejaVuSans-51" transform="translate(260.734375 0)"/>
     <use xlink:href="#DejaVuSans-47" transform="translate(324.109375 0)"/>
     <use xlink:href="#DejaVuSans-52" transform="translate(387.59375 0)"/>
     <use xlink:href="#DejaVuSans-50" transform="translate(448.78125 0)"/>
     <use xlink:href="#DejaVuSans-10" transform="translate(546.1875 0)"/>
     <use xlink:href="#DejaVuSans-48" transform="translate(582.265625 0)"/>
     <use xlink:href="#DejaVuSans-51" transform="translate(643.796875 0)"/>
     <use xlink:href="#DejaVuSans-46" transform="translate(707.171875 0)"/>
     <use xlink:href="#DejaVuSans-52" transform="translate(762.15625 0)"/>
     <use xlink:href="#DejaVuSans-47" transform="translate(823.34375 0)"/>
     <use xlink:href="#DejaVuSans-48" transform="translate(886.828125 0)"/>
     <use xlink:href="#DejaVuSans-55" transform="translate(948.359375 0)"/>
     <use xlink:href="#DejaVuSans-3" transform="translate(989.46875 0)"/>
     <use xlink:href="#DejaVuSans-55" transform="translate(1021.25 0)"/>
     <use xlink:href="#DejaVuSans-48" transform="translate(1060.15625 0)"/>
     <use xlink:href="#DejaVuSans-4a" transform="translate(1121.6875 0)"/>
     <use xlink:href="#DejaVuSans-55" transform="translate(1185.171875 0)"/>
     <use xlink:href="#DejaVuSans-48" transform="translate(1224.078125 0)"/>
     <use xlink:href="#DejaVuSans-56" transform="translate(1285.609375 0)"/>
     <use xlink:href="#DejaVuSans-56" transform="translate(1337.703125 0)"/>
     <use xlink:href="#DejaVuSans-4c" transform="translate(1389.796875 0)"/>
     <use xlink:href="#DejaVuSans-52" transform="translate(1417.578125 0)"/>
     <use xlink:href="#DejaVuSans-51" transform="translate(1478.765625 0)"/>
     <use xlink:href="#DejaVuSans-3" transform="translate(1542.140625 0)"/>
     <use xlink:href="#DejaVuSans-56" transform="translate(1573.921875 0)"/>
     <use xlink:href="#DejaVuSans-48" transform="translate(1626.015625 0)"/>
     <use xlink:href="#DejaVuSans-48" transform="translate(1687.546875 0)"/>
     <use xlink:href="#DejaVuSans-47" transform="translate(1749.078125 0)"/>
     <use xlink:href="#DejaVuSans-56" transform="translate(1812.5625 0)"/>
     <use xlink:href="#DejaVuSans-3" transform="translate(1864.65625 0)"/>
     <use xlink:href="#DejaVuSans-b" transform="translate(1896.4375 0)"/>
     <use xlink:href="#DejaVuSans-51" transform="translate(1935.453125 0)"/>
     <use xlink:href="#DejaVuSans-20" transform="translate(1998.828125 0)"/>
     <use xlink:href="#DejaVuSans-14" transform="translate(2082.625 0)"/>
     <use xlink:href="#DejaVuSans-13" transform="translate(2146.25 0)"/>
     <use xlink:href="#DejaVuSans-c" transform="translate(2209.875 0)"/>
    </g>
   </g>
   <g id="legend_1">
    <g id="patch_15">
     <path d="M 705.200312 52.719375 
L 843.741562 52.719375 
Q 845.341563 52.719375 845.341563 51.119375 
L 845.341563 27.918125 
Q 845.341563 26.318125 843.741562 26.318125 
L 705.200312 26.318125 
Q 703.600312 26.318125 703.600312 27.918125 
L 703.600312 51.119375 
Q 703.600312 52.719375 705.200312 52.719375 
z
" style="fill: #ffffff; opacity: 0.8; stroke: #cccccc; stroke-linejoin: miter"/>
    </g>
    <g id="line2d_21">
     <path d="M 706.800313 32.796875 
L 714.800313 32.796875 
L 722.800313 32.796875 
" style="fill: none; stroke-dasharray: 5.55,2.4; stroke-dashoffset: 0; stroke: #dc143c; stroke-width: 1.5"/>
    </g>
    <g id="text_21">
     <!-- trained main r=-0.045 -->
     <g transform="translate(729.200312 35.596875) scale(0.08 -0.08)">
      <use xlink:href="#DejaVuSans-57"/>
      <use xlink:href="#DejaVuSans-55" transform="translate(39.203125 0)"/>
      <use xlink:href="#DejaVuSans-44" transform="translate(80.3125 0)"/>
      <use xlink:href="#DejaVuSans-4c" transform="translate(141.59375 0)"/>
      <use xlink:href="#DejaVuSans-51" transform="translate(169.375 0)"/>
      <use xlink:href="#DejaVuSans-48" transform="translate(232.75 0)"/>
      <use xlink:href="#DejaVuSans-47" transform="translate(294.28125 0)"/>
      <use xlink:href="#DejaVuSans-3" transform="translate(357.765625 0)"/>
      <use xlink:href="#DejaVuSans-50" transform="translate(389.546875 0)"/>
      <use xlink:href="#DejaVuSans-44" transform="translate(486.953125 0)"/>
      <use xlink:href="#DejaVuSans-4c" transform="translate(548.234375 0)"/>
      <use xlink:href="#DejaVuSans-51" transform="translate(576.015625 0)"/>
      <use xlink:href="#DejaVuSans-3" transform="translate(639.390625 0)"/>
      <use xlink:href="#DejaVuSans-55" transform="translate(671.171875 0)"/>
      <use xlink:href="#DejaVuSans-20" transform="translate(712.28125 0)"/>
      <use xlink:href="#DejaVuSans-10" transform="translate(796.078125 0)"/>
      <use xlink:href="#DejaVuSans-13" transform="translate(832.15625 0)"/>
      <use xlink:href="#DejaVuSans-11" transform="translate(895.78125 0)"/>
      <use xlink:href="#DejaVuSans-13" transform="translate(927.5625 0)"/>
      <use xlink:href="#DejaVuSans-17" transform="translate(991.1875 0)"/>
      <use xlink:href="#DejaVuSans-18" transform="translate(1054.8125 0)"/>
     </g>
    </g>
    <g id="line2d_22">
     <path d="M 706.800313 44.7975 
L 714.800313 44.7975 
L 722.800313 44.7975 
" style="fill: none; stroke-dasharray: 5.55,2.4; stroke-dashoffset: 0; stroke: #000080; stroke-width: 1.5"/>
    </g>
    <g id="text_22">
     <!-- trained orthogonal r=-0.223 -->
     <g transform="translate(729.200312 47.5975) scale(0.08 -0.08)">
      <use xlink:href="#DejaVuSans-57"/>
      <use xlink:href="#DejaVuSans-55" transform="translate(39.203125 0)"/>
      <use xlink:href="#DejaVuSans-44" transform="translate(80.3125 0)"/>
      <use xlink:href="#DejaVuSans-4c" transform="translate(141.59375 0)"/>
      <use xlink:href="#DejaVuSans-51" transform="translate(169.375 0)"/>
      <use xlink:href="#DejaVuSans-48" transform="translate(232.75 0)"/>
      <use xlink:href="#DejaVuSans-47" transform="translate(294.28125 0)"/>
      <use xlink:href="#DejaVuSans-3" transform="translate(357.765625 0)"/>
      <use xlink:href="#DejaVuSans-52" transform="translate(389.546875 0)"/>
      <use xlink:href="#DejaVuSans-55" transform="translate(450.734375 0)"/>
      <use xlink:href="#DejaVuSans-57" transform="translate(491.84375 0)"/>
      <use xlink:href="#DejaVuSans-4b" transform="translate(531.046875 0)"/>
      <use xlink:href="#DejaVuSans-52" transform="translate(594.421875 0)"/>
      <use xlink:href="#DejaVuSans-4a" transform="translate(655.609375 0)"/>
      <use xlink:href="#DejaVuSans-52" transform="translate(719.09375 0)"/>
      <use xlink:href="#DejaVuSans-51" transform="translate(780.28125 0)"/>
      <use xlink:href="#DejaVuSans-44" transform="translate(843.65625 0)"/>
      <use xlink:href="#DejaVuSans-4f" transform="translate(904.9375 0)"/>
      <use xlink:href="#DejaVuSans-3" transform="translate(932.71875 0)"/>
      <use xlink:href="#DejaVuSans-55" transform="translate(964.5 0)"/>
      <use xlink:href="#DejaVuSans-20" transform="translate(1005.609375 0)"/>
      <use xlink:href="#DejaVuSans-10" transform="translate(1089.40625 0)"/>
      <use xlink:href="#DejaVuSans-13" transform="translate(1125.484375 0)"/>
      <use xlink:href="#DejaVuSans-11" transform="translate(1189.109375 0)"/>
      <use xlink:href="#DejaVuSans-15" transform="translate(1220.890625 0)"/>
      <use xlink:href="#DejaVuSans-15" transform="translate(1284.515625 0)"/>
      <use xlink:href="#DejaVuSans-16" transform="translate(1348.140625 0)"/>
     </g>
    </g>
   </g>
  </g>
 </g>
 <defs>
  <clipPath id="pfe91598cd1">
   <rect x="44.103906" y="22.318125" width="374.478828" height="305.717656"/>
  </clipPath>
  <clipPath id="pc13c03c74a">
   <rect x="474.862734" y="22.318125" width="374.478828" height="305.717656"/>
  </clipPath>
 </defs>
</svg>
